<svg xmlns="http://www.w3.org/2000/svg" viewBox="0 0 40 26"><path fill="#fff" d="M0 0h40v26H0z"/><g fill="#1a1918"><path d="M5.96 15.58c0-.56-.3-.52-.58-.53v-.16H7.2a2.28 2.28 0 0 1 2.5 2.2c0 .61-.36 2.17-2.57 2.17H5.38v-.16c.38-.04.56-.05.58-.48zm.61 2.94c0 .49.35.54.65.54a1.75 1.75 0 0 0 1.8-1.95 1.88 1.88 0 0 0-1.96-2.02c-.26 0-.37.02-.49.02zm3.36.58h.12c.17 0 .3 0 .3-.2v-1.7c0-.28-.1-.32-.33-.44v-.1l.67-.23a.22.22 0 0 1 .11-.03c.03 0 .05.04.05.09v2.4c0 .21.13.21.3.21h.11v.16H9.93zm.67-3.67a.3.3 0 0 1 0-.61.3.3 0 0 1 .3.3.31.31 0 0 1-.3.31zm1.26 1.8c0-.23-.07-.3-.36-.41v-.12a8.44 8.44 0 0 0 .82-.3c.02 0 .04.01.04.06v.4a1.83 1.83 0 0 1 1.08-.46c.53 0 .72.39.72.88v1.61c0 .21.14.21.31.21h.12v.16h-1.34v-.16h.11c.18 0 .3 0 .3-.2v-1.63c0-.36-.22-.53-.57-.53a1.66 1.66 0 0 0-.73.3v1.85c0 .21.14.21.31.21h.12v.16h-1.34v-.16h.1c.18 0 .3 0 .3-.2v-1.67m3.21.3a1.55 1.55 0 0 0 0 .37 1.05 1.05 0 0 0 .92 1.08 1.2 1.2 0 0 0 .85-.42l.08.09a1.47 1.47 0 0 1-1.15.7 1.26 1.26 0 0 1-1.2-1.36c0-1.23.83-1.6 1.27-1.6a1 1 0 0 1 1.05 1 .74.74 0 0 1 0 .1l-.06.04zm1.11-.2c.16 0 .18-.08.18-.16a.53.53 0 0 0-.55-.57c-.38 0-.64.28-.72.73zm.86 1.77h.17c.17 0 .3 0 .3-.2v-1.77c0-.2-.23-.23-.33-.28v-.1c.46-.19.7-.35.77-.35.03 0 .05.02.05.08v.56H18c.16-.24.42-.64.8-.64a.34.34 0 0 1 .36.33.3.3 0 0 1-.3.32c-.19 0-.19-.15-.4-.15a.53.53 0 0 0-.46.52v1.47c0 .21.12.21.3.21h.35v.16h-.88a26 26 0 0 0-.74 0zm2.41-.7a.83.83 0 0 0 .78.76.44.44 0 0 0 .51-.45c0-.74-1.36-.5-1.36-1.5a.86.86 0 0 1 .97-.81 1.64 1.64 0 0 1 .71.18l.04.64h-.14a.64.64 0 0 0-.68-.62.44.44 0 0 0-.49.41c0 .74 1.45.51 1.45 1.5 0 .4-.33.85-1.07.85a1.64 1.64 0 0 1-.77-.22l-.07-.72.12-.03m7.44-2.37h-.15A1.2 1.2 0 0 0 25.39 15a1.79 1.79 0 0 0-1.77 2 2.04 2.04 0 0 0 1.87 2.17 1.27 1.27 0 0 0 1.25-1.09l.15.04-.15.91a3.5 3.5 0 0 1-1.38.34A2.23 2.23 0 0 1 22.97 17a2.3 2.3 0 0 1 2.37-2.2 4.5 4.5 0 0 1 1.48.33l.06.9m.22 3.07h.13c.17 0 .3 0 .3-.2v-3.5c0-.4-.1-.42-.34-.49v-.1a3.96 3.96 0 0 0 .65-.27.66.66 0 0 1 .14-.07c.03 0 .05.04.05.1v4.32c0 .21.13.21.3.21h.12v.16H27.1zm4.02-.18c0 .11.07.12.18.12h.25v.12a6.33 6.33 0 0 0-.9.2l-.03-.02v-.5a1.69 1.69 0 0 1-1.11.52.68.68 0 0 1-.69-.75v-1.6c0-.17-.02-.32-.37-.35v-.12l.8-.05c.07 0 .07.05.07.18v1.62c0 .19 0 .73.55.73a1.4 1.4 0 0 0 .75-.38v-1.7c0-.12-.3-.18-.52-.25v-.11c.56-.04.91-.09.97-.09.05 0 .05.05.05.11zm1.25-2.07a1.58 1.58 0 0 1 .93-.45 1.22 1.22 0 0 1 1.16 1.31 1.58 1.58 0 0 1-1.5 1.65 1.84 1.84 0 0 1-.86-.22l-.19.14-.13-.07a7.37 7.37 0 0 0 .09-1.11v-2.7c0-.4-.1-.42-.33-.49v-.1a3.93 3.93 0 0 0 .64-.27.67.67 0 0 1 .14-.07c.04 0 .05.04.05.1zm0 1.7a.67.67 0 0 0 .64.64c.67 0 .95-.65.95-1.21a1.2 1.2 0 0 0-1-1.24.96.96 0 0 0-.6.3v1.51zM5.38 22.91h.04c.13 0 .26-.02.26-.2v-1.78c0-.18-.13-.2-.26-.2h-.04v-.1l.5.01.54-.01v.1h-.05c-.12 0-.25.02-.25.2v1.79c0 .17.13.19.25.19h.05v.1L5.88 23l-.5.01z"/><path d="M6.42 23.03 5.88 23l-.5.02h-.02v-.14h.06c.13 0 .24 0 .24-.17v-1.8c0-.16-.11-.17-.24-.17h-.06v-.13h1.07v.13h-.06c-.13 0-.24.01-.24.18v1.79c0 .16.11.17.24.17h.06v.14zM6.4 23v-.08h-.03c-.12 0-.27-.02-.27-.2v-1.8c0-.18.15-.2.27-.2h.03v-.07h-1v.07h.03c.13 0 .27.02.27.2v1.8c0 .18-.14.2-.27.2H5.4V23l.49-.02.52.02zm2.35-.66h.01v-1.29a.28.28 0 0 0-.3-.32H8.4v-.1l.48.01.42-.01v.1h-.06c-.14 0-.3.03-.3.44v1.55a2.27 2.27 0 0 0 .02.34h-.13L7.07 21.1v1.41c0 .3.06.4.32.4h.06v.1L7 23l-.47.01v-.1h.05c.24 0 .3-.16.3-.43v-1.44a.3.3 0 0 0-.3-.3h-.05v-.11l.4.01.3-.01 1.51 1.71"/><path d="M8.95 23.08h-.14l-1.73-1.94v1.37c0 .3.05.38.3.38h.08v.14h-.01L7 23l-.47.02h-.01v-.14h.06c.23 0 .3-.14.3-.41v-1.44a.3.3 0 0 0-.3-.3h-.06v-.12h.72l1.5 1.69v-1.26c0-.27-.19-.3-.29-.3h-.09v-.13h.94v.13h-.07c-.14 0-.28.01-.28.42v1.55a2.27 2.27 0 0 0 .02.34v.02zm-.13-.03h.11a2.3 2.3 0 0 1-.01-.33v-1.55c0-.41.17-.45.31-.45h.04v-.07H8.4v.07h.06a.3.3 0 0 1 .32.33v1.3h-.02v.01l-1.52-1.71h-.68v.07h.03a.32.32 0 0 1 .32.32v1.44c0 .27-.07.44-.32.45h-.03V23l.45-.02.42.02v-.07H7.4c-.27 0-.34-.12-.34-.42v-1.44l1.77 1.98zm-.07-.71.01-.01v.01zm0 0v-.01zM9.8 20.8c-.26 0-.27.06-.32.31h-.1l.04-.29a2.04 2.04 0 0 0 .02-.29h.08c.03.1.11.1.2.1h1.76c.1 0 .18 0 .18-.1h.09l-.04.28v.28l-.11.04c0-.13-.02-.33-.25-.33h-.56v1.82c0 .26.12.29.28.29h.07v.1l-.56-.01-.57.01v-.1h.06c.19 0 .28-.02.28-.29V20.8z"/><path d="m11.14 23.03-.56-.02-.57.02h-.02v-.14h.08c.19 0 .26 0 .27-.27v-1.8H9.8v-.03h.57v1.83c0 .28-.11.3-.3.3h-.05V23l.56-.02.54.02v-.07h-.05c-.16 0-.3-.05-.3-.31v-1.83h.58c.23 0 .26.2.26.32l.08-.03a3.96 3.96 0 0 1 .04-.53h-.05c-.02.1-.11.1-.2.1H9.71c-.08 0-.17 0-.2-.1h-.06a2.04 2.04 0 0 1-.02.27c0 .1-.02.19-.04.28h.08c.04-.24.07-.32.33-.31v.03c-.26 0-.25.04-.3.3h-.14v-.01l.04-.3a1.93 1.93 0 0 0 .02-.28v-.01h.11c.03.1.09.1.18.1h1.77c.1 0 .16 0 .17-.1v-.01h.02l.1.02-.01.01-.04.28v.28h-.01l-.12.05v-.02c-.01-.13-.03-.31-.24-.31h-.55v1.8c0 .25.11.27.27.27h.08v.14zm.71-.12h.05c.12 0 .25-.02.25-.2v-1.78c0-.18-.13-.2-.25-.2h-.05v-.1l.85.01.87-.01.01.52-.1.03c-.02-.22-.06-.4-.42-.4h-.47v.9h.4c.2 0 .25-.12.27-.3h.1v.78l-.1.02c-.02-.2-.03-.33-.26-.33h-.4v.79c0 .22.19.22.4.22.41 0 .6-.03.7-.41l.1.02a7.7 7.7 0 0 0-.12.54l-.92-.01-.9.01v-.1"/><path d="m13.68 23.03-.92-.02-.9.02h-.02v-.14h.06c.13 0 .24 0 .24-.17v-1.8c0-.16-.11-.17-.24-.17h-.06v-.13h1.75v.01a4.18 4.18 0 0 0 0 .52v.01l-.13.04v-.02c-.02-.22-.05-.38-.4-.38h-.46v.86h.4c.2 0 .23-.1.25-.29v-.01h.13v.01a8.08 8.08 0 0 0 0 .8h-.01l-.12.03v-.02c-.02-.2-.03-.32-.25-.32h-.4v.78c0 .2.18.2.4.2.42 0 .58-.02.68-.4v-.01h.02l.1.03v.01a7.8 7.8 0 0 0-.11.54v.02zm-.02-.03.11-.52-.06-.02c-.1.39-.3.42-.7.42-.22 0-.43 0-.44-.24v-.8H13c.24-.01.26.13.28.33l.07-.02a7.25 7.25 0 0 1 0-.76h-.07c-.02.18-.08.3-.29.3h-.42v-.92h.5c.35 0 .4.18.42.4l.07-.03a5.76 5.76 0 0 1 0-.5l-.86.02-.83-.01v.07h.03c.12 0 .27.02.27.2v1.8c0 .18-.15.2-.27.2h-.03V23l.89-.02zm.59-2c0-.26-.14-.27-.24-.27h-.06v-.1l.53.01.54-.01c.43 0 .81.12.81.6a.64.64 0 0 1-.47.6l.58.87a.38.38 0 0 0 .33.21v.1l-.33-.01-.32.01a9.45 9.45 0 0 1-.7-1.1h-.23v.73c0 .26.12.27.28.27h.06v.1l-.59-.01-.5.01v-.1h.07c.13 0 .24-.06.24-.18v-1.74zm.44.78h.16c.34 0 .53-.13.53-.53a.47.47 0 0 0-.5-.5 1.65 1.65 0 0 0-.2.02v1.01z"/><path d="m16.27 23.03-.33-.02c-.1 0-.21.02-.33.01a9.54 9.54 0 0 1-.7-1.1h-.2v.72c0 .25.1.25.26.25h.07v.14h-.01l-.59-.02-.5.02v-.14H14c.12 0 .22-.05.23-.16v-1.74c0-.24-.13-.24-.23-.24h-.08v-.13h1.09c.43 0 .83.11.83.61a.65.65 0 0 1-.47.6l.57.87a.37.37 0 0 0 .32.2h.02v.13zm-1.58-1.14h.23a10.55 10.55 0 0 0 .7 1.1h.64v-.07a.39.39 0 0 1-.33-.2l-.6-.9h.02a.63.63 0 0 0 .47-.59c0-.47-.37-.58-.8-.58h-1.06v.07h.05c.1 0 .26.02.26.27v1.74c0 .13-.13.2-.26.2h-.05V23l.48-.02.57.02v-.07h-.04c-.16 0-.3-.02-.3-.3v-.74zm0-.1h-.02v-1.04h.01a1.63 1.63 0 0 1 .2-.01.48.48 0 0 1 .51.51c0 .4-.2.55-.54.55zm.16-.02c.34 0 .51-.12.51-.52a.45.45 0 0 0-.48-.48 1.33 1.33 0 0 0-.18.01v.99zm3.73.57h.01v-1.29a.28.28 0 0 0-.3-.32h-.07v-.1l.48.01.42-.01v.1h-.06c-.14 0-.3.03-.3.44v1.55a2.27 2.27 0 0 0 .02.34h-.13L16.9 21.1v1.41c0 .3.06.4.32.4h.06v.1l-.44-.01-.47.01v-.1h.05c.24 0 .3-.16.3-.43v-1.44a.3.3 0 0 0-.3-.3h-.05v-.11l.4.01.3-.01z"/><path d="M18.78 23.08h-.14l-1.73-1.94v1.37c0 .3.05.38.3.38h.08v.14h-.01l-.44-.02-.47.02h-.01v-.14h.06c.23 0 .3-.14.3-.41v-1.44a.3.3 0 0 0-.3-.3h-.06v-.12h.71l1.5 1.69v-1.26c0-.27-.18-.3-.28-.3h-.09v-.13h.93v.13h-.07c-.14 0-.28.01-.28.42v1.55a2.15 2.15 0 0 0 .02.34v.02zm-.13-.03h.11a2.34 2.34 0 0 1-.01-.33v-1.55c0-.41.17-.45.31-.45h.04v-.07h-.87v.07h.06a.3.3 0 0 1 .32.33v1.3h-.02v.01l-1.52-1.71h-.68v.07h.03a.32.32 0 0 1 .32.32v1.44c0 .27-.07.44-.32.45h-.03V23l.45-.02.42.02v-.07h-.04c-.27 0-.34-.12-.34-.42v-1.44zm-.07-.71.01-.01v.01zm0 0v-.01zm1.08.18a1.38 1.38 0 0 0-.07.27c0 .1.14.12.25.12h.04v.1a7.72 7.72 0 0 0-.78 0v-.1h.02a.3.3 0 0 0 .3-.22l.54-1.57a2.87 2.87 0 0 0 .13-.42 1.73 1.73 0 0 0 .3-.15.08.08 0 0 1 .04 0 .02.02 0 0 1 .02 0l.03.1.63 1.78.12.34a.22.22 0 0 0 .23.14h.02v.1a9.66 9.66 0 0 0-.98 0v-.1h.03c.08 0 .22-.01.22-.1a1.1 1.1 0 0 0-.07-.25l-.14-.4h-.77l-.1.36zm.5-1.5-.32.96h.63l-.31-.97z"/><path d="M21.48 23.03 21 23l-.51.02h-.02v-.14h.05c.08 0 .2-.01.2-.08a1.1 1.1 0 0 0-.07-.24l-.13-.39h-.75l-.1.35a1.41 1.41 0 0 0-.08.26c0 .08.13.1.24.1h.06v.14h-.02l-.41-.02-.37.02h-.01v-.14h.03a.3.3 0 0 0 .28-.2l.55-1.57a4.05 4.05 0 0 0 .13-.44 1.75 1.75 0 0 0 .31-.14.09.09 0 0 1 .03-.01.04.04 0 0 1 .04.02l.03.09.63 1.78c.04.12.08.25.13.35a.2.2 0 0 0 .2.12h.04v.14h-.01zM20.5 23l.5-.02.45.02v-.07a.23.23 0 0 1-.24-.15c-.05-.1-.09-.23-.13-.35l-.62-1.78-.03-.09h-.02a.08.08 0 0 0-.01 0 1.26 1.26 0 0 1-.3.14 2.83 2.83 0 0 1-.13.43l-.55 1.56a.32.32 0 0 1-.3.24h-.01V23l.35-.02.4.02v-.07h-.03c-.1 0-.26-.02-.27-.14a1.35 1.35 0 0 1 .08-.27h.01-.01l.11-.36h.8l.13.4a1.04 1.04 0 0 1 .07.25c0 .1-.15.11-.23.12h-.02zm-.7-1 .33-1h.03l.32 1zm.05-.04h.6l-.3-.91zm.28-.94h.01zm1.5-.22c-.26 0-.27.06-.32.31h-.1l.04-.29a2.1 2.1 0 0 0 .02-.29h.08c.03.1.11.1.2.1h1.76c.1 0 .18 0 .19-.1h.08l-.04.28v.28l-.1.04c-.02-.13-.03-.33-.26-.33h-.56v1.82c0 .26.12.29.28.29h.07v.1L22.4 23l-.57.01v-.1h.06c.19 0 .29-.02.29-.29V20.8h-.56"/><path d="M22.97 23.03 22.4 23l-.57.02h-.02v-.14h.08c.19 0 .27 0 .27-.27v-1.8h-.54v-.03h.57v1.83c0 .28-.11.3-.3.3h-.05V23l.56-.02.54.02v-.07h-.05c-.16 0-.3-.05-.3-.31v-1.83h.58c.23 0 .26.2.26.32l.08-.03v-.27l.04-.26h-.05c-.02.1-.11.1-.2.1h-1.77c-.08 0-.17 0-.2-.1h-.06a2 2 0 0 1-.02.27c0 .1-.02.19-.04.28h.08c.04-.24.07-.32.33-.31v.03c-.26 0-.25.04-.3.3h-.14v-.01l.04-.29a1.98 1.98 0 0 0 .02-.29v-.01h.11c.03.1.1.1.18.1h1.77c.1 0 .17 0 .17-.1v-.01h.02l.1.02v.01l-.05.28v.28h-.01l-.12.05v-.02c-.01-.13-.03-.31-.24-.31h-.54v1.8c0 .25.1.27.26.27h.08v.14h-.01m.74-.12h.05c.12 0 .25-.02.25-.2v-1.78c0-.18-.13-.2-.25-.2h-.05v-.1l.5.01.54-.01v.1h-.05c-.12 0-.25.02-.25.2v1.79c0 .17.13.19.25.19h.05v.1L24.2 23l-.5.01z"/><path d="M24.74 23.03 24.2 23l-.5.02h-.01v-.14h.06c.12 0 .24 0 .24-.17v-1.8c0-.16-.12-.17-.24-.17h-.06v-.13h1.07v.13h-.07c-.12 0-.23.01-.23.18v1.79c0 .16.1.17.23.17h.07v.14zm-.01-.03v-.07h-.04c-.12 0-.26-.03-.26-.21v-1.8c0-.18.14-.2.26-.2h.04v-.07H23.7v.07h.04c.12 0 .27.02.27.2v1.8c0 .18-.15.2-.27.2h-.03V23l.48-.02.53.02zm1.37-2.42a1.2 1.2 0 0 1 1.3 1.18 1.25 1.25 0 0 1-1.28 1.3 1.2 1.2 0 0 1-1.28-1.22 1.24 1.24 0 0 1 1.26-1.26m.05 2.33c.66 0 .78-.58.78-1.08s-.27-1.1-.84-1.1c-.6 0-.77.53-.77.99 0 .6.28 1.2.83 1.2"/><path d="M24.83 21.84a1.26 1.26 0 0 1 1.27-1.28v.03a1.23 1.23 0 0 0-1.24 1.25 1.19 1.19 0 0 0 1.26 1.2 1.24 1.24 0 0 0 1.27-1.28 1.18 1.18 0 0 0-1.3-1.17v-.03a1.21 1.21 0 0 1 1.33 1.2 1.27 1.27 0 0 1-1.3 1.32 1.22 1.22 0 0 1-1.3-1.24m.48-.12c0-.46.18-1 .8-1 .57 0 .84.61.84 1.11s-.12 1.1-.79 1.1v-.03c.65 0 .76-.57.76-1.07s-.26-1.08-.82-1.09c-.58 0-.75.52-.76.98 0 .6.28 1.18.82 1.18v.03c-.56 0-.84-.6-.85-1.21m4.4.62v-1.29a.28.28 0 0 0-.3-.32h-.07v-.1l.48.01.42-.01v.1h-.05c-.15 0-.3.03-.3.44v1.55a2.2 2.2 0 0 0 .01.34h-.12L28 21.1v1.41c0 .3.06.4.32.4h.06v.1l-.44-.01-.46.01v-.1h.05c.23 0 .3-.16.3-.43v-1.44a.3.3 0 0 0-.3-.3h-.05v-.11l.39.01.3-.01 1.52 1.71"/><path d="M29.9 23.08h-.15l-1.72-1.94v1.37c0 .3.05.38.3.38h.07v.14h-.01l-.44-.02-.46.02h-.02v-.14h.07c.22 0 .28-.14.29-.41v-1.44a.3.3 0 0 0-.3-.3h-.06v-.12h.72l1.5 1.69v-1.26c0-.27-.18-.3-.28-.3h-.1v-.13h.94v.13h-.06c-.14 0-.29.01-.3.42v1.55a2.26 2.26 0 0 0 .03.34v.02zm-.13-.03h.1a2.42 2.42 0 0 1-.01-.33v-1.55c0-.41.17-.45.32-.45h.03v-.07h-.86v.07h.06a.3.3 0 0 1 .3.33v1.3l-.01.01-1.52-1.71h-.68v.07h.03a.32.32 0 0 1 .33.32v1.44c0 .27-.08.44-.32.45h-.04V23l.45-.02.43.02v-.07h-.05c-.27 0-.33-.12-.33-.42v-1.44zm-.07-.71v-.01zm-.01 0v-.01zm1.09.18a1.43 1.43 0 0 0-.08.27c0 .1.14.12.26.12h.03v.1a7.71 7.71 0 0 0-.78 0v-.1h.02a.3.3 0 0 0 .3-.22l.55-1.57a2.79 2.79 0 0 0 .12-.42 1.75 1.75 0 0 0 .31-.15.07.07 0 0 1 .03 0 .02.02 0 0 1 .02 0l.03.1.63 1.78c.04.11.08.24.13.34a.22.22 0 0 0 .22.14h.02v.1a9.66 9.66 0 0 0-.98 0v-.1h.04c.08 0 .2-.01.2-.1a1.1 1.1 0 0 0-.06-.25l-.13-.4h-.78zm.5-1.5h-.01l-.32.96h.64l-.32-.97z"/><path d="m32.59 23.03-.47-.02-.5.02h-.02v-.14h.05c.08 0 .2-.01.2-.08a1.06 1.06 0 0 0-.07-.24l-.13-.39h-.76l-.1.35a1.44 1.44 0 0 0-.07.26c0 .08.12.1.24.1H31v.14h-.02l-.4-.02-.38.02h-.01v-.14h.03a.3.3 0 0 0 .29-.2l.54-1.57a4.27 4.27 0 0 0 .14-.44 1.85 1.85 0 0 0 .3-.14.08.08 0 0 1 .04 0 .04.04 0 0 1 .04.01l.03.09.62 1.78c.04.12.08.25.13.35a.2.2 0 0 0 .2.12h.04v.14h-.01zm-.97-.03.5-.02.46.02v-.08h-.01a.23.23 0 0 1-.24-.14l-.12-.35-.63-1.78a3.61 3.61 0 0 1-.03-.09h-.01a.06.06 0 0 0-.02 0 1.3 1.3 0 0 1-.3.14 2.94 2.94 0 0 1-.13.43l-.55 1.56a.32.32 0 0 1-.3.24h-.01V23l.35-.02.4.02v-.07h-.02c-.11 0-.27-.02-.27-.14a1.42 1.42 0 0 1 .07-.27h.02-.02l.11-.36h.8l.13.4a1.07 1.07 0 0 1 .07.25c0 .1-.15.11-.22.12h-.03zm-.7-1 .34-1h.02l.33 1zm.05-.04h.6l-.3-.91zm2.48.72c0 .13.1.18.2.19a2.47 2.47 0 0 0 .45 0 .48.48 0 0 0 .33-.2.78.78 0 0 0 .1-.24h.1l-.12.58-.9-.01-.9.01v-.1h.05c.12 0 .25-.02.25-.23v-1.75c0-.18-.13-.2-.25-.2h-.05v-.1l.54.01.51-.01v.1h-.08c-.13 0-.23 0-.23.19z"/><path d="m34.5 23.03-.9-.02-.9.02v-.14h.06c.12 0 .24 0 .24-.2v-1.76c0-.17-.12-.18-.24-.18h-.07v-.13h1.09v.13h-.1c-.13 0-.21 0-.22.17v1.76c0 .13.09.16.2.17l.18.01a2.46 2.46 0 0 0 .26-.01.48.48 0 0 0 .32-.18.77.77 0 0 0 .1-.24v-.01h.13v.02l-.13.58zm0-.03.11-.55h-.07a.77.77 0 0 1-.1.24.5.5 0 0 1-.34.19 2.6 2.6 0 0 1-.26.01h-.19c-.11-.02-.22-.07-.22-.21v-1.76c0-.2.12-.2.25-.2h.07v-.07h-1.03v.07h.04c.12 0 .27.02.27.2v1.76c0 .22-.15.24-.27.24h-.04V23l.89-.02.88.02zm.1-2.47a.36.36 0 1 1-.37.36.35.35 0 0 1 .36-.36zm0 .66a.3.3 0 1 0-.3-.3.29.29 0 0 0 .3.3zm-.19-.1v-.02c.05-.01.05 0 .05-.04v-.26c0-.04 0-.05-.05-.05v-.02h.19c.06 0 .12.03.12.1a.11.11 0 0 1-.09.1l.06.09a.38.38 0 0 0 .08.08v.01h-.07c-.03 0-.06-.07-.13-.16h-.04v.12c0 .02.01.02.06.03v.01zm.12-.2h.05c.04 0 .06-.03.06-.09s-.03-.08-.07-.08h-.04z"/></g><path fill="#fff" d="M13.33 8.58a5.77 5.77 0 1 1 5.76 5.78 5.77 5.77 0 0 1-5.76-5.78"/><path fill="#154a78" d="M22.58 8.47a3.48 3.48 0 0 0-2.23-3.24v6.48a3.48 3.48 0 0 0 2.23-3.24zm-4.7 3.24V5.23a3.47 3.47 0 0 0 0 6.48zM19.1 3a5.48 5.48 0 1 0 5.47 5.48A5.47 5.47 0 0 0 19.11 3zm0 11.48a5.99 5.99 0 0 1-6.03-5.94A5.9 5.9 0 0 1 19.1 2.5h1.55a6.1 6.1 0 0 1 6.24 6.03 6.22 6.22 0 0 1-6.24 5.94z"/></svg>