<svg xmlns="http://www.w3.org/2000/svg" width="40" height="26" fill="none" viewBox="0 0 40 26"><path fill="#fff" d="M0 0h40v26H0V0Z"/><path fill="#00112C" d="M17 10.49V12h1.5a1.5 1.5 0 1 0-1.5-1.5v-.01ZM10.37 12A3.48 3.48 0 0 1 15 7.33V4h-4.69A3.31 3.31 0 0 0 7 7.31V12h3.37Z"/><path fill="#00112C" d="M18.51 7a3.49 3.49 0 0 1 3.15 5H33V7.31A3.31 3.31 0 0 0 29.69 4H17v3.34c.47-.22.99-.34 1.51-.34Zm-.1 7 2.3 2.29-1.42 1.42-2.29-2.3V22h12.69A3.31 3.31 0 0 0 33 18.69V14H18.41Zm-4.9-5a1.5 1.5 0 1 0 0 3H15v-1.62A1.5 1.5 0 0 0 13.51 9ZM15 15.41l-2.29 2.3-1.42-1.42 2.3-2.29H7v4.69A3.31 3.31 0 0 0 10.31 22H15v-6.59Z"/></svg>