<svg xmlns="http://www.w3.org/2000/svg" viewBox="0 0 40 26"><path fill="#252828" d="M0 0h40v26H0z"/><path fill="#fff" d="M5.02 17.94c1.78 0 2.68-.8 2.68-1.8s-.66-1.52-1.96-1.52c-.42 0-.84.05-1.25.05-.26 0-.42-.07-.42-.26s.27-.34.5-.4a2.86 2.86 0 0 0 .49.03 2.07 2.07 0 0 0 2.27-2.01 1.95 1.95 0 0 0-.34-1.14l.64-.45-.93-.8-.54.6a2.62 2.62 0 0 0-1.26-.29 2.15 2.15 0 0 0-2.35 2.1 1.83 1.83 0 0 0 .99 1.66 1.08 1.08 0 0 0-.76.95c0 .62.46 1.02 1.38 1.02l1.38-.02c.55 0 .84.2.84.52 0 .37-.42.64-1.35.64a2.78 2.78 0 0 1-1.87-.64l-.82.97a4.16 4.16 0 0 0 2.68.79M4.95 11a1.04 1.04 0 1 1-.02 2.07A1.04 1.04 0 1 1 4.95 11m10-.95-1.45 3.88-1.36-3.88H10.7l2.2 5.5h1.2l2.25-5.5zm6.73 3.15H17.7a1.47 1.47 0 0 0 1.62 1.37 2.1 2.1 0 0 0 1.39-.48l.5.95a3.21 3.21 0 0 1-2.06.63 2.66 2.66 0 0 1-2.83-2.82 2.76 2.76 0 0 1 2.78-2.94 2.47 2.47 0 0 1 2.64 2.62 3.36 3.36 0 0 1-.07.67m-3.93-.98h2.7a1.28 1.28 0 0 0-1.35-1.26 1.37 1.37 0 0 0-1.35 1.26"/><path fill="#c1d82f" d="M27 14.64c-.53 0-.79-.3-1.64-1.94l2.3-2.66H26.3l-1.45 1.73c-.62-1.14-.99-1.84-1.91-1.84a1.4 1.4 0 0 0-.34.04l-.43.97a.86.86 0 0 1 .21-.03c.49 0 .7.31 1.57 1.92l-2.37 2.72h1.4l1.47-1.78c.58 1 1.01 1.87 1.89 1.87a1.26 1.26 0 0 0 .6-.11l.4-.94a.88.88 0 0 1-.34.05"/><path fill="#fff" d="M9.33 8.06a.74.74 0 1 1-.75.74.74.74 0 0 1 .75-.74m18.91 6.8h.7v.69h-.7zm1.24-.26a1 1 0 0 1 1.03-1 .91.91 0 0 1 .82.42l-.46.34a.43.43 0 0 0-.36-.2.4.4 0 0 0-.38.43.4.4 0 0 0 .39.44.45.45 0 0 0 .37-.2l.45.33a.95.95 0 0 1-.85.44.99.99 0 0 1-1-1m3.78 0a.42.42 0 0 0-.41-.44.4.4 0 0 0-.4.43.42.42 0 0 0 .4.44.4.4 0 0 0 .4-.43m-1.46 0a1.06 1.06 0 0 1 2.12-.01 1.02 1.02 0 0 1-1.06 1 1.01 1.01 0 0 1-1.06-1m2.76-.96h.68v.26a.7.7 0 0 1 .57-.3.59.59 0 0 1 .55.31.8.8 0 0 1 .64-.31.62.62 0 0 1 .66.7v1.26h-.67v-1.04c0-.21-.1-.33-.27-.33s-.27.12-.27.33v1.04h-.68v-1.04c0-.21-.1-.33-.26-.33s-.27.12-.27.33v1.04h-.68zM8.77 15.55V11.1h-.7v-1.05h2v5.5z"/></svg>