<svg xmlns="http://www.w3.org/2000/svg" viewBox="0 0 40 26"><path fill="#fff" d="M-.12 0H40v25.99H-.12z"/><path fill="#727272" d="m10.77 10.67 2.7-1.35a7.64 7.64 0 0 0-5.8-2.7c-3.75 0-5.04 2.42-5.04 3.82a4.23 4.23 0 0 0 4.6 3.95c3.7 0 3.24 1.33 3.24 1.33s.01 1.12-2.16 1.12a3.95 3.95 0 0 1-3.47-1.67l-2.65 1.38s1.64 2.83 6.16 2.83 5.42-2.6 5.42-3.81c0-1.25-.37-3.81-4.88-4.04C6.02 11.4 6 10.81 6 10.1s.76-.93 2.24-.86a3.68 3.68 0 0 1 2.54 1.44zm24.03 0 2.7-1.35a7.64 7.64 0 0 0-5.8-2.7c-3.74 0-5.03 2.42-5.03 3.82a4.23 4.23 0 0 0 4.6 3.95c3.7 0 3.24 1.33 3.24 1.33s.01 1.12-2.16 1.12a3.95 3.95 0 0 1-3.47-1.67l-2.65 1.38s1.64 2.83 6.16 2.83 5.42-2.6 5.42-3.81c0-1.25-.37-3.81-4.88-4.04-2.87-.14-2.9-.72-2.9-1.44s.76-.93 2.24-.86a3.68 3.68 0 0 1 2.53 1.44zM14.37 7h3.58l2.27 7.73 2.44-7.7H26l-4.38 11.98H18.7z"/></svg>