<svg xmlns="http://www.w3.org/2000/svg" viewBox="0 0 40 26"><path fill="#fff" d="M0 0h40v26H0z"/><path fill="#1c3378" d="M29.1 3.68H10.9v19.71h18.2z"/><path fill="#fff" d="M28.64 16.48H11.36V4.14h17.28z"/><path fill="#1c3378" d="m24.37 6.38-3.39 8.1h-2.21L17.1 8a.9.9 0 0 0-.5-.71 8.96 8.96 0 0 0-2.07-.69l.05-.23h3.56a.98.98 0 0 1 .97.82l.88 4.68 2.18-5.5h2.2"/><path fill="#fff" d="M16.17 19.65a1.27 1.27 0 0 0 .33.02c.49 0 .79-.25.79-.69 0-.42-.28-.64-.74-.64a1.72 1.72 0 0 0-.38.03zm-.65-1.76a5.46 5.46 0 0 1 1-.08 1.58 1.58 0 0 1 1.07.31 1.08 1.08 0 0 1 .36.83 1.17 1.17 0 0 1-.31.86 1.55 1.55 0 0 1-1.14.4 1.88 1.88 0 0 1-.33-.02v1.42h-.65zm4.9 2.13-.28-.93c-.07-.23-.13-.48-.18-.7h-.01c-.05.22-.1.48-.17.7l-.28.93zm-1.03.52-.3 1.07h-.69l1.16-3.77h.84l1.17 3.77h-.7l-.33-1.07zm3.57 1.06v-1.56l-1.14-2.2h.75l.43.97.31.75h.01l.32-.75.43-.97h.74l-1.2 2.18v1.59z"/></svg>